<?xml version="1.0" encoding="utf-8"?>
<!-- Generator: Adobe Illustrator 23.0.3, SVG Export Plug-In . SVG Version: 6.00 Build 0)  -->
<svg version="1.1" id="Layer_1" xmlns="http://www.w3.org/2000/svg" xmlns:xlink="http://www.w3.org/1999/xlink" x="0px" y="0px"
	 viewBox="0 0 579 374" style="enable-background:new 0 0 579 374;" xml:space="preserve">
<style type="text/css">
	.st0{fill:#1E65F3;}
</style>
<path class="st0" d="M394.3,58.3l-32.1,15.9c-0.1,0.1-0.3,0.2-0.4,0.3c-0.1,0.1-0.2,0.3-0.3,0.5c-0.1,0.2-0.1,0.3-0.1,0.6
	c0,0.2,0.1,0.3,0.1,0.6l48.8,107.5c18.2,40,13.3,70.3-14.3,84.1c-22.4,11-41.6,3.3-56.6-23.6l-57.9-127.3
	c-23.4-51.6-55.3-65.3-93.3-46.5c-24.6,12.2-38.9,34-38.6,61.8c0,0.3-0.1,0.6-0.3,0.9c-0.2,0.3-0.5,0.4-0.8,0.5
	c-0.3,0.1-0.6,0.1-0.9-0.1c-0.3-0.1-0.5-0.3-0.7-0.7l-12.6-27.8c-0.1-0.1-0.2-0.3-0.3-0.4c-0.1-0.1-0.3-0.2-0.5-0.3
	c-0.1-0.1-0.3-0.1-0.5-0.1s-0.3,0.1-0.5,0.1L100.6,120c-0.3,0.1-0.6,0.4-0.7,0.8c-0.1,0.3-0.1,0.8,0.1,1.1l88.7,195.3
	c0.1,0.3,0.5,0.6,0.8,0.8c0.3,0.1,0.7,0.1,1.1-0.1l32.1-15.9c0.1-0.1,0.3-0.2,0.4-0.3c0.1-0.1,0.2-0.3,0.3-0.5
	c0.1-0.2,0.1-0.3,0.1-0.6s-0.1-0.3-0.1-0.6l-47.5-104.5c-19.4-42.7-15.7-73.5,13.9-88.2c22.7-11.3,40.4-3.7,56.3,25.2
	c0,0,0.1,0.1,0.1,0.1l57.3,126c22.1,48.6,56.4,65.3,92.6,47.4c28-13.9,39.6-34.7,38.9-62.2c0-0.3,0.1-0.6,0.3-0.9
	c0.2-0.3,0.5-0.4,0.8-0.5c0.3-0.1,0.6-0.1,0.9,0.1c0.3,0.1,0.5,0.3,0.7,0.7l12.8,28.1c0.1,0.1,0.2,0.3,0.3,0.4
	c0.1,0.1,0.3,0.2,0.5,0.3c0.2,0.1,0.3,0.1,0.5,0.1c0.2,0,0.3-0.1,0.5-0.1l32.1-15.9c0.1-0.1,0.3-0.2,0.4-0.3
	c0.1-0.1,0.2-0.3,0.3-0.5c0.1-0.2,0.1-0.3,0.1-0.6c0-0.2-0.1-0.3-0.1-0.6L396.1,59c-0.1-0.3-0.5-0.6-0.8-0.8
	C395,58.1,394.6,58.1,394.3,58.3z"/>
</svg>
