<svg id="svg" version="1.1" xmlns="http://www.w3.org/2000/svg" xmlns:xlink="http://www.w3.org/1999/xlink" width="400" height="400" viewBox="0, 0, 400,400"><g id="svgg"><path id="path0" d="M60.000 6.213 C 60.000 6.857,61.065 7.469,61.474 7.059 C 61.759 6.774,60.855 5.600,60.351 5.600 C 60.158 5.600,60.000 5.876,60.000 6.213 M334.700 9.232 C 333.842 9.732,333.790 10.267,334.600 10.267 C 334.930 10.267,335.112 10.178,335.003 10.070 C 334.895 9.962,335.007 9.632,335.252 9.337 C 335.779 8.703,335.650 8.678,334.700 9.232 M360.000 15.724 C 360.000 16.049,360.283 16.423,360.629 16.556 C 361.068 16.724,361.219 16.596,361.129 16.132 C 360.965 15.285,360.000 14.937,360.000 15.724 M178.400 16.957 C 178.400 17.842,177.455 18.000,172.171 18.000 C 167.640 18.000,167.163 18.070,166.707 18.800 C 166.266 19.506,165.774 19.600,162.504 19.600 C 159.067 19.600,158.800 19.658,158.800 20.400 C 158.800 21.133,158.533 21.200,155.600 21.200 C 152.667 21.200,152.400 21.267,152.400 22.000 C 152.400 22.728,152.133 22.800,149.427 22.800 C 146.805 22.800,146.424 22.895,146.200 23.600 C 145.991 24.260,145.595 24.400,143.944 24.400 C 142.777 24.400,141.713 24.630,141.391 24.952 C 141.088 25.255,139.993 25.630,138.957 25.785 C 137.922 25.941,136.820 26.323,136.509 26.634 C 136.198 26.945,135.461 27.202,134.871 27.205 C 133.185 27.214,132.000 27.644,132.000 28.247 C 132.000 28.624,131.499 28.800,130.424 28.800 C 129.557 28.800,128.734 28.983,128.596 29.207 C 128.458 29.430,128.173 29.507,127.962 29.377 C 127.752 29.247,127.630 29.379,127.690 29.670 C 127.765 30.030,127.254 30.239,126.100 30.323 C 124.745 30.421,124.400 30.599,124.400 31.200 C 124.400 31.801,124.055 31.979,122.700 32.077 C 121.708 32.149,120.979 32.408,120.950 32.700 C 120.848 33.723,120.779 33.786,120.400 33.200 C 120.142 32.800,120.010 32.767,120.006 33.100 C 120.002 33.403,119.451 33.600,118.603 33.600 C 117.640 33.600,117.052 33.848,116.707 34.400 C 116.406 34.882,115.774 35.200,115.118 35.200 C 114.438 35.200,113.867 35.501,113.600 36.000 C 113.315 36.532,112.762 36.800,111.948 36.800 C 111.062 36.800,110.668 37.020,110.516 37.600 C 110.340 38.272,109.630 38.567,108.400 38.481 C 108.290 38.473,108.261 39.245,108.337 40.196 C 108.466 41.812,108.817 42.274,113.737 47.289 C 118.695 52.343,130.091 64.265,134.736 69.258 C 137.380 72.100,137.568 72.140,141.637 70.715 C 152.025 67.079,165.435 63.911,175.000 62.833 C 190.393 61.099,218.373 61.379,228.800 63.372 C 230.450 63.687,232.700 64.053,233.800 64.184 C 234.900 64.316,236.880 64.678,238.200 64.988 C 239.520 65.299,242.400 65.942,244.600 66.418 C 246.800 66.893,249.680 67.598,251.000 67.984 C 254.506 69.010,260.386 70.818,262.000 71.367 C 264.095 72.079,264.959 71.750,266.427 69.679 C 267.159 68.646,267.869 67.710,268.005 67.600 C 268.140 67.490,269.851 65.420,271.808 63.000 C 273.764 60.580,275.930 57.970,276.621 57.200 C 277.312 56.430,278.758 54.810,279.834 53.600 C 280.911 52.390,283.438 49.690,285.450 47.600 C 291.053 41.781,291.575 41.132,291.879 39.613 C 292.035 38.836,292.126 38.065,292.081 37.900 C 292.036 37.735,292.180 37.600,292.400 37.600 C 292.620 37.600,292.800 37.420,292.800 37.200 C 292.800 36.456,291.976 36.794,291.652 37.671 L 291.330 38.541 291.103 37.671 C 290.924 36.987,290.576 36.800,289.484 36.800 C 288.430 36.800,288.043 36.606,287.884 36.000 C 287.736 35.434,287.338 35.200,286.526 35.200 C 285.873 35.200,285.083 34.855,284.693 34.400 C 284.106 33.714,282.216 33.313,280.700 33.553 C 280.535 33.579,280.421 33.465,280.447 33.300 C 280.609 32.274,280.273 32.000,278.847 32.000 C 277.630 32.000,277.248 31.827,277.084 31.200 C 276.924 30.587,276.538 30.400,275.437 30.400 C 274.480 30.400,274.000 30.215,274.000 29.847 C 274.000 29.216,272.800 28.813,270.900 28.805 C 270.062 28.802,269.600 28.603,269.600 28.247 C 269.600 27.595,268.389 27.213,266.300 27.205 C 265.298 27.202,264.800 27.018,264.800 26.651 C 264.800 26.058,262.337 25.504,260.917 25.777 C 260.341 25.888,260.014 25.697,259.876 25.170 C 259.710 24.535,259.311 24.400,257.600 24.400 C 255.862 24.400,255.491 24.270,255.316 23.600 C 255.131 22.891,254.770 22.800,252.153 22.800 C 249.316 22.800,248.971 22.650,249.153 21.500 C 249.179 21.335,247.781 21.200,246.047 21.200 C 243.230 21.200,242.871 21.115,242.684 20.400 C 242.495 19.676,242.138 19.600,238.934 19.600 C 235.826 19.600,235.331 19.502,234.893 18.800 C 234.435 18.067,233.960 18.000,229.200 18.000 C 224.440 18.000,223.965 17.933,223.507 17.200 C 222.853 16.152,178.400 15.913,178.400 16.957 M361.600 20.783 C 361.600 20.997,361.960 21.365,362.400 21.600 C 362.840 21.835,363.200 21.885,363.200 21.710 C 363.200 21.535,362.840 21.168,362.400 20.893 C 361.957 20.616,361.600 20.567,361.600 20.783 M88.881 21.982 C 89.433 22.866,89.822 22.755,89.462 21.817 C 89.332 21.478,89.038 21.200,88.809 21.200 C 88.546 21.200,88.572 21.487,88.881 21.982 M304.548 26.592 C 304.412 26.945,304.413 27.347,304.551 27.484 C 304.688 27.621,304.800 27.513,304.800 27.243 C 304.800 26.973,304.980 26.864,305.200 27.000 C 305.420 27.136,305.600 27.067,305.600 26.847 C 305.600 26.128,304.800 25.934,304.548 26.592 M95.825 27.600 C 96.025 27.930,96.191 28.365,96.194 28.567 C 96.197 28.768,96.425 29.008,96.700 29.100 C 97.493 29.364,97.281 28.595,96.331 27.762 C 95.805 27.300,95.605 27.236,95.825 27.600 M37.652 28.137 C 37.407 28.432,37.325 28.792,37.470 28.937 C 37.615 29.082,37.513 29.200,37.243 29.200 C 36.973 29.200,36.865 29.381,37.002 29.603 C 37.341 30.151,38.267 29.193,38.267 28.295 C 38.267 27.459,38.224 27.448,37.652 28.137 M99.600 30.593 C 99.600 30.725,99.982 31.231,100.449 31.717 L 101.299 32.600 100.847 31.722 C 100.400 30.854,99.600 30.129,99.600 30.593 M38.400 79.551 C 38.400 80.297,39.172 81.600,39.614 81.600 C 40.245 81.600,40.055 80.826,39.200 79.908 C 38.748 79.423,38.400 79.268,38.400 79.551 M356.344 96.523 C 355.730 97.293,355.084 98.840,354.799 100.223 C 354.108 103.577,352.899 108.181,350.395 117.000 C 350.145 117.880,349.571 119.950,349.119 121.600 C 348.667 123.250,347.959 125.680,347.546 127.000 C 347.133 128.320,346.063 131.830,345.169 134.800 C 344.275 137.770,343.298 140.830,342.999 141.600 C 340.066 149.152,340.011 150.540,342.467 154.860 C 347.407 163.549,354.291 178.935,356.043 185.200 C 356.258 185.970,356.692 187.230,357.007 188.000 C 358.322 191.219,361.752 205.614,362.438 210.800 C 362.657 212.450,363.001 214.430,363.204 215.200 C 363.549 216.510,364.323 223.577,365.241 233.800 C 365.973 241.943,365.890 251.017,365.051 254.600 C 363.893 259.547,362.395 264.869,361.768 266.260 C 361.456 266.954,361.200 267.654,361.200 267.817 C 361.200 267.979,360.840 268.897,360.400 269.856 C 359.960 270.815,359.214 272.455,358.742 273.500 C 356.112 279.328,348.628 290.696,343.071 297.306 C 335.576 306.221,321.407 319.418,313.983 324.400 C 313.491 324.730,312.619 325.360,312.044 325.800 C 307.459 329.312,298.664 335.023,293.048 338.135 C 291.922 338.759,290.550 339.562,290.000 339.919 C 288.082 341.165,275.816 347.427,271.900 349.159 C 270.855 349.622,269.235 350.342,268.300 350.760 C 264.432 352.488,260.681 353.989,252.200 357.204 C 251.100 357.621,249.660 358.075,249.000 358.212 C 248.340 358.350,247.440 358.630,247.000 358.836 C 246.560 359.041,245.210 359.490,244.000 359.833 C 242.790 360.177,240.540 360.820,239.000 361.263 C 237.460 361.705,234.970 362.321,233.466 362.631 C 231.962 362.942,230.576 363.291,230.386 363.409 C 229.742 363.807,221.827 365.208,215.400 366.062 C 204.310 367.536,189.735 367.095,180.400 365.003 C 170.581 362.802,163.354 360.994,162.200 360.450 C 161.760 360.242,159.510 359.494,157.200 358.787 C 154.890 358.079,152.820 357.361,152.600 357.192 C 152.380 357.022,151.570 356.703,150.800 356.482 C 148.813 355.913,138.888 351.863,136.997 350.849 C 136.125 350.382,135.229 350.000,135.005 350.000 C 134.337 350.000,117.742 341.544,114.200 339.398 C 113.320 338.865,112.150 338.197,111.600 337.914 C 111.050 337.630,109.340 336.624,107.800 335.678 C 106.260 334.733,104.644 333.743,104.210 333.479 C 102.364 332.359,95.383 327.818,95.200 327.618 C 95.090 327.498,94.100 326.780,93.000 326.023 C 89.727 323.769,80.591 316.922,78.698 315.303 C 77.731 314.477,75.877 312.900,74.578 311.800 C 65.740 304.312,56.596 294.958,51.399 288.085 C 50.520 286.922,49.158 285.122,48.373 284.085 C 47.588 283.048,46.418 281.334,45.773 280.274 C 45.128 279.215,44.119 277.595,43.532 276.674 C 41.615 273.671,37.819 265.741,37.368 263.800 C 37.215 263.140,36.950 262.420,36.779 262.200 C 35.449 260.485,33.851 250.585,34.163 246.000 C 35.169 231.260,36.299 221.621,38.055 212.800 C 38.296 211.590,38.720 209.430,38.998 208.000 C 39.276 206.570,39.812 204.230,40.188 202.800 C 40.565 201.370,41.240 198.760,41.688 197.000 C 42.137 195.240,42.750 193.122,43.051 192.293 C 43.353 191.464,43.767 190.114,43.973 189.293 C 45.048 185.001,50.026 171.800,52.840 165.774 C 53.258 164.879,53.600 164.034,53.600 163.896 C 53.600 163.757,54.950 160.864,56.600 157.465 C 58.250 154.067,59.600 151.018,59.600 150.691 C 59.600 150.128,58.007 145.535,57.210 143.800 C 55.657 140.419,51.973 129.320,49.442 120.400 C 47.914 115.012,45.200 103.578,45.200 102.527 C 45.200 101.262,43.057 97.600,42.316 97.600 C 41.867 97.600,41.600 97.898,41.600 98.400 C 41.600 98.933,41.333 99.200,40.800 99.200 C 40.303 99.200,40.000 99.467,40.000 99.904 C 40.000 100.291,39.640 100.832,39.200 101.107 C 38.690 101.426,38.400 102.040,38.400 102.803 C 38.400 103.733,38.222 104.000,37.600 104.000 C 37.156 104.000,36.800 104.267,36.800 104.600 C 36.800 104.930,36.440 105.560,36.000 106.000 C 35.560 106.440,35.200 107.250,35.200 107.800 C 35.200 108.533,34.987 108.800,34.400 108.800 C 33.758 108.800,33.600 109.067,33.600 110.153 C 33.600 111.170,33.401 111.559,32.800 111.716 C 32.347 111.834,32.000 112.262,32.000 112.701 C 32.000 113.127,31.640 113.802,31.200 114.200 C 30.760 114.598,30.400 115.256,30.400 115.662 C 30.400 116.068,30.040 116.760,29.600 117.200 C 29.160 117.640,28.800 118.341,28.800 118.757 C 28.800 119.174,28.540 119.614,28.222 119.736 C 27.904 119.858,27.527 120.585,27.383 121.351 C 27.239 122.118,26.869 122.841,26.561 122.960 C 26.252 123.078,26.000 123.632,26.000 124.191 C 26.000 124.750,25.640 125.516,25.200 125.893 C 24.663 126.353,24.400 127.073,24.400 128.086 C 24.400 129.160,24.170 129.737,23.600 130.093 C 23.038 130.444,22.800 131.026,22.800 132.050 C 22.800 133.170,22.615 133.555,22.000 133.716 C 21.387 133.876,21.200 134.262,21.200 135.363 C 21.200 136.267,20.903 137.097,20.400 137.600 C 19.875 138.125,19.600 138.933,19.600 139.953 C 19.600 141.170,19.427 141.552,18.800 141.716 C 18.133 141.890,18.000 142.262,18.000 143.948 C 18.000 145.562,17.838 146.058,17.200 146.400 C 16.567 146.739,16.400 147.238,16.400 148.794 C 16.400 150.234,16.217 150.863,15.715 151.144 C 15.197 151.434,14.991 152.216,14.870 154.363 C 14.754 156.419,14.559 157.200,14.162 157.200 C 13.499 157.200,13.239 158.233,13.103 161.400 C 13.028 163.142,12.855 163.770,12.470 163.690 C 12.179 163.630,12.047 163.752,12.177 163.962 C 12.307 164.173,12.230 164.458,12.007 164.596 C 11.783 164.734,11.600 166.075,11.600 167.575 C 11.600 169.414,11.419 170.452,11.045 170.763 C 10.395 171.302,10.030 174.012,9.949 178.882 C 9.911 181.198,9.743 182.337,9.446 182.282 C 8.853 182.173,8.311 200.291,8.592 210.800 C 8.707 215.090,8.823 220.660,8.850 223.178 C 8.886 226.477,9.053 227.910,9.450 228.307 C 9.824 228.681,10.015 229.969,10.047 232.329 C 10.101 236.266,10.449 238.238,11.068 238.118 C 11.336 238.066,11.517 239.315,11.559 241.518 C 11.613 244.273,11.791 245.226,12.413 246.084 C 12.981 246.866,13.200 247.815,13.200 249.495 C 13.200 251.327,13.370 251.968,14.000 252.507 C 14.599 253.020,14.800 253.687,14.800 255.163 C 14.800 257.508,15.087 258.400,15.843 258.400 C 16.253 258.400,16.400 258.992,16.400 260.637 C 16.400 262.538,16.520 262.906,17.200 263.084 C 17.877 263.261,18.000 263.630,18.000 265.484 C 18.000 267.338,18.123 267.707,18.800 267.884 C 19.465 268.058,19.600 268.430,19.600 270.084 C 19.600 271.738,19.735 272.110,20.400 272.284 C 21.016 272.445,21.200 272.830,21.200 273.958 C 21.200 274.965,21.451 275.604,22.000 276.000 C 22.557 276.401,22.800 277.035,22.800 278.085 C 22.800 279.160,23.030 279.737,23.600 280.093 C 24.115 280.414,24.400 281.026,24.400 281.807 C 24.400 282.527,24.726 283.301,25.200 283.707 C 25.640 284.084,26.000 284.850,26.000 285.409 C 26.000 285.968,26.252 286.522,26.561 286.640 C 26.869 286.759,27.237 287.473,27.379 288.228 C 27.520 288.982,27.875 289.600,28.167 289.600 C 28.477 289.600,28.804 290.266,28.954 291.200 C 29.119 292.235,29.420 292.800,29.805 292.800 C 30.173 292.800,30.400 293.181,30.400 293.800 C 30.400 294.350,30.760 295.160,31.200 295.600 C 31.640 296.040,32.000 296.642,32.000 296.938 C 32.000 297.234,32.360 297.802,32.800 298.200 C 33.240 298.598,33.600 299.273,33.600 299.699 C 33.600 300.138,33.947 300.566,34.400 300.684 C 34.994 300.839,35.200 301.230,35.200 302.200 C 35.200 303.170,35.406 303.561,36.000 303.716 C 36.440 303.831,36.800 304.259,36.800 304.666 C 36.800 305.074,37.160 305.632,37.600 305.907 C 38.052 306.190,38.400 306.840,38.400 307.403 C 38.400 308.133,38.614 308.400,39.200 308.400 C 39.700 308.400,40.000 308.667,40.000 309.112 C 40.000 309.503,40.360 310.083,40.800 310.400 C 41.270 310.739,41.600 311.435,41.600 312.088 C 41.600 312.787,41.813 313.200,42.173 313.200 C 42.488 313.200,42.860 313.560,43.000 314.000 C 43.140 314.440,43.512 314.800,43.827 314.800 C 44.142 314.800,44.400 315.160,44.400 315.600 C 44.400 316.040,44.760 316.760,45.200 317.200 C 45.640 317.640,46.000 318.170,46.000 318.377 C 46.000 318.585,46.327 318.990,46.726 319.277 C 47.126 319.565,47.570 320.115,47.714 320.500 C 47.857 320.885,48.251 321.200,48.587 321.200 C 48.924 321.200,49.200 321.464,49.200 321.786 C 49.200 322.108,49.560 322.565,50.000 322.800 C 50.440 323.035,50.800 323.572,50.800 323.991 C 50.800 324.411,51.127 324.990,51.526 325.277 C 51.926 325.565,52.370 326.115,52.514 326.500 C 52.657 326.885,53.051 327.200,53.387 327.200 C 53.733 327.200,54.000 327.548,54.000 328.000 C 54.000 328.533,54.267 328.800,54.800 328.800 C 55.333 328.800,55.600 329.067,55.600 329.600 C 55.600 330.133,55.867 330.400,56.400 330.400 C 56.933 330.400,57.200 330.667,57.200 331.200 C 57.200 331.733,57.467 332.000,58.000 332.000 C 58.533 332.000,58.800 332.267,58.800 332.800 C 58.800 333.240,59.049 333.600,59.353 333.600 C 59.658 333.600,60.001 333.960,60.116 334.400 C 60.231 334.840,60.591 335.200,60.916 335.200 C 61.241 335.200,61.601 335.560,61.716 336.000 C 61.831 336.440,62.191 336.800,62.516 336.800 C 62.841 336.800,63.201 337.160,63.316 337.600 C 63.431 338.040,63.791 338.400,64.116 338.400 C 64.441 338.400,64.801 338.760,64.916 339.200 C 65.031 339.640,65.391 340.000,65.716 340.000 C 66.041 340.000,66.401 340.360,66.516 340.800 C 66.631 341.240,67.012 341.600,67.363 341.600 C 67.713 341.600,68.000 341.870,68.000 342.200 C 68.000 342.533,68.356 342.800,68.800 342.800 C 69.333 342.800,69.600 343.067,69.600 343.600 C 69.600 344.133,69.867 344.400,70.400 344.400 C 70.933 344.400,71.200 344.667,71.200 345.200 C 71.200 345.733,71.467 346.000,72.000 346.000 C 72.533 346.000,72.800 346.267,72.800 346.800 C 72.800 347.333,73.067 347.600,73.600 347.600 C 74.050 347.600,74.400 347.867,74.400 348.210 C 74.400 348.569,74.899 348.920,75.614 349.063 C 76.282 349.196,77.008 349.642,77.228 350.053 C 77.448 350.464,77.871 350.800,78.167 350.800 C 78.464 350.800,78.801 351.160,78.916 351.600 C 79.031 352.040,79.412 352.400,79.763 352.400 C 80.113 352.400,80.400 352.641,80.400 352.936 C 80.400 353.230,80.850 353.677,81.400 353.927 C 81.950 354.178,82.400 354.559,82.400 354.773 C 82.400 354.988,83.013 355.279,83.763 355.419 C 84.632 355.582,85.199 355.952,85.326 356.438 C 85.435 356.857,85.812 357.200,86.163 357.200 C 86.513 357.200,86.800 357.470,86.800 357.800 C 86.800 358.189,87.190 358.400,87.912 358.400 C 88.565 358.400,89.261 358.730,89.600 359.200 C 89.917 359.640,90.497 360.000,90.888 360.000 C 91.333 360.000,91.600 360.300,91.600 360.800 C 91.600 361.317,91.883 361.618,92.400 361.650 C 93.730 361.733,93.920 361.785,94.267 362.164 C 94.465 362.381,94.358 362.391,94.000 362.187 C 93.483 361.893,93.476 361.940,93.949 362.523 C 94.251 362.895,94.815 363.200,95.202 363.200 C 95.590 363.200,96.001 363.560,96.116 364.000 C 96.276 364.613,96.662 364.800,97.763 364.800 C 98.933 364.800,99.200 364.948,99.200 365.600 C 99.200 366.044,99.467 366.400,99.800 366.400 C 100.130 366.400,100.760 366.760,101.200 367.200 C 101.640 367.640,102.429 368.000,102.953 368.000 C 103.570 368.000,103.981 368.282,104.116 368.800 C 104.275 369.406,104.662 369.600,105.716 369.600 C 106.770 369.600,107.157 369.794,107.316 370.400 C 107.463 370.964,107.862 371.200,108.666 371.200 C 109.374 371.200,109.997 371.504,110.307 372.000 C 110.626 372.510,111.240 372.800,112.003 372.800 C 112.760 372.800,113.200 373.005,113.200 373.357 C 113.200 374.002,114.052 374.400,115.433 374.400 C 116.026 374.400,116.400 374.632,116.400 375.000 C 116.400 375.433,116.844 375.600,118.000 375.600 C 119.333 375.600,119.600 375.733,119.600 376.400 C 119.600 377.063,119.867 377.200,121.153 377.200 C 122.378 377.200,122.752 377.372,122.919 378.011 C 123.036 378.458,123.282 378.796,123.466 378.764 C 125.293 378.443,127.624 378.866,127.518 379.500 C 127.426 380.045,127.728 380.227,128.880 380.323 C 129.928 380.410,130.433 380.673,130.607 381.223 C 130.811 381.864,131.226 382.000,132.980 382.000 C 134.770 382.000,135.140 382.127,135.316 382.800 C 135.493 383.477,135.862 383.600,137.716 383.600 C 139.570 383.600,139.939 383.723,140.116 384.400 C 140.294 385.080,140.662 385.200,142.563 385.200 C 144.208 385.200,144.800 385.347,144.800 385.757 C 144.800 386.541,145.703 386.800,148.433 386.800 C 150.189 386.800,150.800 386.944,150.800 387.357 C 150.800 388.153,151.708 388.400,154.633 388.400 C 156.552 388.400,157.200 388.540,157.200 388.953 C 157.200 389.666,158.444 389.988,161.220 389.995 C 162.441 389.998,163.682 390.225,163.979 390.500 C 164.410 390.900,164.461 390.900,164.235 390.500 C 163.807 389.741,164.440 389.902,165.023 390.700 C 165.445 391.278,166.308 391.424,169.967 391.535 C 173.453 391.642,174.400 391.791,174.400 392.235 C 174.400 392.703,175.806 392.800,182.600 392.800 C 187.145 392.800,190.800 392.959,190.800 393.157 C 190.800 393.724,191.946 394.011,192.249 393.521 C 192.427 393.233,192.339 393.190,192.000 393.400 C 191.661 393.610,191.573 393.567,191.751 393.279 C 192.055 392.788,193.070 393.041,194.011 393.842 C 194.860 394.566,206.736 394.552,207.600 393.826 C 208.538 393.038,209.548 392.792,209.849 393.279 C 210.027 393.567,209.939 393.610,209.600 393.400 C 209.254 393.186,209.173 393.233,209.362 393.538 C 209.727 394.130,209.823 394.120,210.522 393.421 C 210.980 392.962,212.765 392.816,219.051 392.721 C 225.146 392.628,226.977 392.483,226.900 392.100 C 226.826 391.728,227.763 391.600,230.550 391.600 C 234.900 391.600,236.800 391.299,236.800 390.611 C 236.800 390.277,237.725 390.095,239.700 390.040 C 243.266 389.940,244.400 389.678,244.400 388.957 C 244.400 388.539,245.041 388.400,246.967 388.400 C 249.892 388.400,250.800 388.153,250.800 387.357 C 250.800 386.944,251.411 386.800,253.167 386.800 C 255.897 386.800,256.800 386.541,256.800 385.757 C 256.800 385.347,257.392 385.200,259.037 385.200 C 260.938 385.200,261.306 385.080,261.484 384.400 C 261.661 383.723,262.030 383.600,263.884 383.600 C 265.738 383.600,266.107 383.477,266.284 382.800 C 266.457 382.139,266.830 382.000,268.433 382.000 C 269.962 382.000,270.462 381.831,270.800 381.200 C 271.105 380.630,271.638 380.400,272.652 380.400 C 273.738 380.400,274.124 380.211,274.284 379.600 C 274.458 378.935,274.830 378.800,276.484 378.800 C 278.138 378.800,278.510 378.665,278.684 378.000 C 278.848 377.373,279.230 377.200,280.447 377.200 C 281.733 377.200,282.000 377.063,282.000 376.400 C 282.000 375.733,282.267 375.600,283.600 375.600 C 284.756 375.600,285.200 375.433,285.200 375.000 C 285.200 374.600,285.600 374.400,286.397 374.400 C 287.160 374.400,287.774 374.110,288.093 373.600 C 288.396 373.115,289.026 372.800,289.693 372.800 C 290.360 372.800,290.990 372.485,291.293 372.000 C 291.603 371.504,292.226 371.200,292.934 371.200 C 293.738 371.200,294.137 370.964,294.284 370.400 C 294.443 369.794,294.830 369.600,295.884 369.600 C 296.938 369.600,297.325 369.406,297.484 368.800 C 297.620 368.281,298.030 368.000,298.651 368.000 C 299.177 368.000,299.916 367.640,300.293 367.200 C 300.670 366.760,301.298 366.400,301.689 366.400 C 302.133 366.400,302.400 366.100,302.400 365.600 C 302.400 364.955,302.667 364.800,303.773 364.800 C 304.795 364.800,305.211 364.595,305.400 364.000 C 305.540 363.560,305.958 363.200,306.331 363.200 C 306.703 363.200,307.232 362.840,307.507 362.400 C 307.790 361.948,308.440 361.600,309.003 361.600 C 309.733 361.600,310.000 361.386,310.000 360.800 C 310.000 360.268,310.267 360.000,310.797 360.000 C 311.235 360.000,311.818 359.640,312.093 359.200 C 312.396 358.714,313.026 358.400,313.696 358.400 C 314.411 358.400,314.800 358.188,314.800 357.800 C 314.800 357.470,315.087 357.200,315.437 357.200 C 315.788 357.200,316.165 356.857,316.274 356.438 C 316.401 355.952,316.968 355.582,317.837 355.419 C 318.646 355.268,319.200 354.927,319.200 354.582 C 319.200 354.262,319.460 354.000,319.777 354.000 C 320.095 354.000,320.590 353.673,320.877 353.274 C 321.165 352.874,321.715 352.430,322.100 352.286 C 322.485 352.143,322.800 351.749,322.800 351.413 C 322.800 351.076,323.087 350.800,323.437 350.800 C 323.788 350.800,324.169 350.440,324.284 350.000 C 324.418 349.489,324.830 349.200,325.424 349.200 C 325.936 349.200,326.590 348.873,326.877 348.474 C 327.165 348.074,327.715 347.630,328.100 347.486 C 328.485 347.343,328.800 346.949,328.800 346.613 C 328.800 346.267,329.148 346.000,329.600 346.000 C 330.133 346.000,330.400 345.733,330.400 345.200 C 330.400 344.667,330.667 344.400,331.200 344.400 C 331.733 344.400,332.000 344.133,332.000 343.600 C 332.000 343.067,332.267 342.800,332.800 342.800 C 333.244 342.800,333.600 342.533,333.600 342.200 C 333.600 341.870,333.887 341.600,334.237 341.600 C 334.588 341.600,334.969 341.240,335.084 340.800 C 335.199 340.360,335.559 340.000,335.884 340.000 C 336.209 340.000,336.569 339.640,336.684 339.200 C 336.799 338.760,337.159 338.400,337.484 338.400 C 337.809 338.400,338.169 338.040,338.284 337.600 C 338.399 337.160,338.759 336.800,339.084 336.800 C 339.409 336.800,339.769 336.440,339.884 336.000 C 339.999 335.560,340.359 335.200,340.684 335.200 C 341.009 335.200,341.369 334.840,341.484 334.400 C 341.599 333.960,341.942 333.600,342.247 333.600 C 342.551 333.600,342.800 333.240,342.800 332.800 C 342.800 332.267,343.067 332.000,343.600 332.000 C 344.133 332.000,344.400 331.733,344.400 331.200 C 344.400 330.667,344.667 330.400,345.200 330.400 C 345.733 330.400,346.000 330.133,346.000 329.600 C 346.000 329.067,346.267 328.800,346.800 328.800 C 347.333 328.800,347.600 328.533,347.600 328.000 C 347.600 327.548,347.867 327.200,348.213 327.200 C 348.549 327.200,348.941 326.899,349.082 326.531 C 349.223 326.162,349.668 325.532,350.069 325.131 C 350.471 324.729,350.800 324.040,350.800 323.600 C 350.800 323.135,351.067 322.800,351.437 322.800 C 351.788 322.800,352.169 322.440,352.284 322.000 C 352.399 321.560,352.759 321.200,353.084 321.200 C 353.409 321.200,353.769 320.840,353.884 320.400 C 353.999 319.960,354.241 319.600,354.421 319.600 C 354.601 319.600,355.153 318.880,355.648 318.000 C 356.143 317.120,356.694 316.400,356.874 316.400 C 357.053 316.400,357.200 316.040,357.200 315.600 C 357.200 315.156,357.467 314.800,357.800 314.800 C 358.130 314.800,358.400 314.461,358.400 314.047 C 358.400 313.630,358.757 313.200,359.200 313.084 C 359.716 312.949,360.000 312.538,360.000 311.926 C 360.000 311.404,360.360 310.717,360.800 310.400 C 361.240 310.083,361.600 309.503,361.600 309.112 C 361.600 308.667,361.900 308.400,362.400 308.400 C 363.007 308.400,363.200 308.133,363.200 307.296 C 363.200 306.626,363.514 305.996,364.000 305.693 C 364.440 305.418,364.800 304.931,364.800 304.611 C 364.800 304.290,365.160 303.835,365.600 303.600 C 366.113 303.326,366.400 302.762,366.400 302.033 C 366.400 301.230,366.636 300.832,367.200 300.684 C 367.653 300.566,368.000 300.138,368.000 299.699 C 368.000 299.273,368.360 298.598,368.800 298.200 C 369.240 297.802,369.600 297.163,369.600 296.781 C 369.600 296.398,369.860 295.986,370.178 295.864 C 370.496 295.742,370.876 295.003,371.022 294.221 C 371.169 293.439,371.523 292.800,371.809 292.800 C 372.105 292.800,372.447 292.108,372.600 291.200 C 372.761 290.246,373.091 289.600,373.417 289.600 C 373.726 289.600,374.079 288.988,374.227 288.194 C 374.372 287.421,374.757 286.640,375.081 286.458 C 375.406 286.277,375.656 286.009,375.636 285.864 C 375.444 284.450,375.701 283.622,376.400 283.400 C 376.995 283.211,377.200 282.795,377.200 281.773 C 377.200 280.933,377.511 280.089,378.000 279.600 C 378.533 279.067,378.800 278.267,378.800 277.200 C 378.800 275.867,378.933 275.600,379.600 275.600 C 380.267 275.600,380.400 275.333,380.400 274.000 C 380.400 272.899,380.574 272.400,380.957 272.400 C 381.674 272.400,382.000 271.523,382.000 269.594 C 382.000 268.405,382.182 267.996,382.800 267.800 C 383.468 267.588,383.600 267.195,383.600 265.420 C 383.600 263.630,383.727 263.260,384.400 263.084 C 385.080 262.906,385.200 262.538,385.200 260.637 C 385.200 258.999,385.348 258.400,385.753 258.400 C 386.434 258.400,386.787 257.173,386.795 254.789 C 386.798 253.477,387.021 252.789,387.600 252.293 C 388.226 251.757,388.400 251.113,388.400 249.335 C 388.400 247.743,388.609 246.824,389.100 246.263 C 389.530 245.772,389.580 245.592,389.231 245.798 C 388.814 246.043,388.841 245.877,389.331 245.177 C 389.788 244.524,390.000 243.406,390.000 241.642 C 390.000 239.749,390.186 238.858,390.699 238.291 C 391.264 237.666,391.436 236.510,391.599 232.259 C 391.725 228.950,391.948 227.074,392.200 227.200 C 392.894 227.547,392.942 182.824,392.248 182.035 C 391.862 181.596,391.637 179.936,391.517 176.647 C 391.377 172.792,391.218 171.802,390.672 171.403 C 390.188 171.049,389.999 170.310,389.996 168.756 C 389.989 165.687,389.579 163.600,388.982 163.600 C 388.635 163.600,388.400 162.722,388.258 160.900 C 387.978 157.310,387.951 157.200,387.333 157.200 C 386.957 157.200,386.798 156.581,386.795 155.100 C 386.788 152.439,386.457 151.200,385.753 151.200 C 385.366 151.200,385.200 150.671,385.200 149.433 C 385.200 147.286,384.896 146.400,384.157 146.400 C 383.765 146.400,383.600 145.877,383.600 144.633 C 383.600 142.486,383.296 141.600,382.557 141.600 C 382.174 141.600,382.000 141.101,382.000 140.000 C 382.000 138.527,381.733 138.189,380.700 138.353 C 380.535 138.379,380.421 138.265,380.447 138.100 C 380.754 136.156,380.319 133.904,379.600 133.716 C 378.985 133.555,378.800 133.170,378.800 132.050 C 378.800 131.026,378.562 130.444,378.000 130.093 C 377.502 129.782,377.200 129.160,377.200 128.446 C 377.200 127.814,376.895 127.051,376.523 126.749 C 375.947 126.281,375.897 126.283,376.185 126.762 C 376.389 127.100,376.372 127.230,376.142 127.087 C 375.931 126.958,375.717 126.075,375.665 125.126 C 375.613 124.177,375.308 123.201,374.987 122.957 C 374.666 122.713,374.290 121.948,374.151 121.257 C 374.013 120.566,373.745 120.000,373.555 120.000 C 373.366 120.000,372.942 119.357,372.614 118.571 C 372.285 117.785,371.871 117.232,371.693 117.342 C 371.515 117.452,371.333 117.060,371.288 116.471 C 371.243 115.882,370.845 115.153,370.403 114.851 C 369.920 114.521,369.600 113.855,369.600 113.178 C 369.600 112.405,369.350 111.975,368.800 111.800 C 368.232 111.620,368.000 111.195,368.000 110.336 C 368.000 109.462,367.778 109.067,367.200 108.916 C 366.757 108.800,366.400 108.370,366.400 107.953 C 366.400 107.539,366.040 106.840,365.600 106.400 C 365.160 105.960,364.800 105.240,364.800 104.800 C 364.800 104.267,364.533 104.000,364.000 104.000 C 363.380 104.000,363.200 103.733,363.200 102.814 C 363.200 102.038,362.924 101.480,362.400 101.200 C 361.960 100.965,361.600 100.418,361.600 99.986 C 361.600 99.484,361.329 99.200,360.850 99.200 C 360.337 99.200,360.024 98.821,359.860 98.000 C 359.728 97.340,359.425 96.800,359.186 96.800 C 358.948 96.800,358.882 97.025,359.041 97.300 C 359.208 97.590,359.176 97.660,358.964 97.467 C 358.603 97.136,358.546 96.953,358.450 95.800 C 358.367 94.809,357.465 95.119,356.344 96.523 " stroke="none" fill="#fc0404" fill-rule="evenodd"></path><path id="path1" d="M120.000 135.778 C 106.479 140.532,100.828 153.736,108.648 162.299 C 112.614 166.640,137.290 166.057,144.085 161.462 C 148.293 158.615,147.303 149.360,142.179 143.661 C 140.356 141.633,135.562 137.600,134.975 137.600 C 134.803 137.600,134.379 137.360,134.031 137.066 C 131.367 134.815,124.525 134.187,120.000 135.778 M267.800 135.577 C 265.708 136.328,262.974 137.813,262.071 138.688 C 261.781 138.969,261.411 139.200,261.250 139.200 C 260.714 139.200,255.556 144.486,254.574 146.042 C 251.284 151.253,251.148 158.473,254.285 161.292 C 257.676 164.337,275.391 166.257,284.800 164.600 C 286.670 164.271,288.252 164.001,288.316 164.001 C 289.017 163.997,291.699 160.340,292.539 158.242 C 294.694 152.858,293.410 147.488,288.704 142.208 C 283.332 136.181,274.192 133.281,267.800 135.577 M193.000 215.889 C 173.056 217.813,153.602 230.350,141.001 249.400 C 137.108 255.285,130.412 267.832,129.419 271.100 C 128.942 272.674,127.714 272.109,124.302 268.747 C 117.106 261.658,100.475 250.000,97.557 250.000 C 97.319 250.000,96.646 249.739,96.062 249.421 C 86.751 244.339,67.980 240.742,54.000 241.360 C 45.486 241.737,37.475 242.637,36.039 243.380 C 32.276 245.326,37.117 265.020,44.009 275.800 C 44.430 276.460,45.073 277.540,45.437 278.200 C 50.338 287.101,64.982 303.021,78.400 314.037 C 79.830 315.211,81.220 316.358,81.490 316.586 C 83.065 317.917,89.432 322.692,92.400 324.767 C 97.332 328.214,106.653 334.265,109.683 335.985 C 110.279 336.323,111.899 337.203,113.283 337.940 C 114.668 338.677,115.980 339.421,116.200 339.594 C 116.420 339.766,118.310 340.808,120.400 341.909 C 122.490 343.010,124.740 344.199,125.400 344.551 C 129.058 346.503,140.764 351.743,146.200 353.862 C 147.080 354.205,148.610 354.804,149.600 355.194 C 153.601 356.771,156.037 357.614,161.000 359.139 C 170.428 362.036,171.726 362.400,172.617 362.400 C 173.102 362.400,174.201 362.647,175.058 362.950 C 175.915 363.252,177.603 363.627,178.808 363.783 C 180.014 363.939,181.990 364.314,183.200 364.616 C 190.998 366.563,211.478 366.560,220.174 364.610 C 221.508 364.311,223.590 363.939,224.800 363.783 C 226.010 363.628,227.450 363.330,228.000 363.122 C 228.550 362.913,230.260 362.503,231.800 362.211 C 233.340 361.918,235.950 361.284,237.600 360.801 C 239.250 360.319,241.770 359.603,243.200 359.211 C 245.442 358.596,249.753 357.138,256.800 354.610 C 257.790 354.255,259.167 353.702,259.860 353.382 C 260.554 353.062,261.304 352.800,261.528 352.800 C 261.752 352.800,262.445 352.539,263.068 352.220 C 264.878 351.292,267.827 350.000,268.136 350.000 C 268.434 350.000,277.736 345.655,279.800 344.552 C 280.460 344.199,282.474 343.131,284.275 342.178 C 287.107 340.679,293.393 337.073,298.000 334.306 C 299.892 333.169,310.113 326.318,312.600 324.520 C 321.380 318.171,333.027 307.576,339.743 299.827 C 340.874 298.522,342.439 296.722,343.220 295.827 C 345.160 293.605,348.175 289.421,351.455 284.397 C 355.682 277.924,356.869 275.845,358.532 272.000 C 359.150 270.570,359.819 269.040,360.018 268.600 C 362.361 263.418,365.194 251.350,365.198 246.532 L 365.200 244.064 362.300 243.395 C 352.715 241.185,331.133 241.807,321.000 244.586 C 319.900 244.887,318.370 245.254,317.600 245.399 C 315.850 245.731,311.413 247.112,309.740 247.847 C 309.046 248.151,308.346 248.400,308.183 248.400 C 306.966 248.400,294.551 254.825,290.303 257.654 C 282.989 262.523,281.658 263.550,276.529 268.276 C 274.426 270.214,272.546 271.782,272.352 271.760 C 272.158 271.738,271.744 271.693,271.432 271.660 C 271.119 271.627,270.737 271.015,270.582 270.300 C 269.108 263.492,260.762 247.708,254.773 240.400 C 240.041 222.424,217.592 213.516,193.000 215.889 M224.400 241.466 C 230.199 245.545,231.454 251.779,228.856 263.606 C 228.415 265.613,226.478 269.600,225.943 269.600 C 225.754 269.600,225.600 269.839,225.600 270.130 C 225.600 271.425,218.654 277.334,215.610 278.629 C 210.464 280.818,210.813 280.222,210.805 286.836 C 210.800 291.355,210.824 291.483,211.769 291.913 C 212.958 292.455,214.400 293.660,214.400 294.112 C 214.400 294.296,214.951 295.133,215.625 295.971 L 216.850 297.496 224.226 297.785 L 231.601 298.074 233.469 296.837 L 235.337 295.600 241.589 295.600 C 249.475 295.600,249.879 295.959,248.000 301.304 C 247.560 302.556,247.200 303.962,247.200 304.430 C 247.200 304.897,246.955 305.846,246.656 306.540 C 246.357 307.233,245.911 308.295,245.665 308.900 C 245.301 309.794,244.964 310.000,243.871 310.000 C 242.367 310.000,241.404 310.831,240.992 312.484 C 240.843 313.080,240.469 313.777,240.161 314.033 C 239.852 314.289,239.600 314.794,239.600 315.155 C 239.600 315.516,239.264 316.439,238.853 317.206 C 238.443 317.973,237.977 319.189,237.819 319.910 C 237.538 321.193,235.837 323.600,235.212 323.600 C 235.038 323.600,234.379 322.925,233.747 322.100 L 232.600 320.600 232.400 312.400 L 232.200 304.200 231.000 304.273 C 229.451 304.368,222.801 305.057,216.187 305.808 C 210.287 306.478,199.590 306.568,195.400 305.983 C 193.860 305.768,190.620 305.428,188.200 305.229 C 185.780 305.029,182.675 304.737,181.300 304.581 L 178.800 304.297 178.800 312.967 L 178.800 321.638 177.742 322.619 C 176.316 323.941,175.479 323.854,174.677 322.300 C 174.307 321.585,173.835 320.730,173.627 320.400 C 172.824 319.125,171.609 316.070,170.724 313.103 C 169.827 310.095,169.764 310.006,168.544 310.003 C 166.302 309.998,165.583 308.996,165.320 305.509 C 165.088 302.451,165.067 302.402,162.952 300.112 C 160.521 297.478,160.521 297.479,161.600 296.400 C 162.918 295.082,174.227 295.204,177.252 296.570 C 179.217 297.457,180.098 297.562,187.600 297.804 L 195.800 298.068 196.804 296.934 C 197.356 296.310,198.346 295.003,199.004 294.029 C 199.662 293.055,200.695 292.071,201.300 291.842 L 202.400 291.425 202.400 286.124 L 202.400 280.823 200.300 279.835 C 199.145 279.291,197.750 278.652,197.200 278.414 C 196.650 278.176,195.480 277.545,194.600 277.011 C 193.720 276.478,192.592 275.855,192.094 275.628 C 191.039 275.147,188.983 273.720,187.815 272.659 C 187.367 272.252,186.430 271.477,185.732 270.937 C 184.287 269.817,181.305 265.464,180.167 262.813 C 178.951 259.980,179.027 247.660,180.273 245.456 C 181.693 242.945,183.789 240.922,185.528 240.384 C 186.118 240.202,194.700 240.086,204.600 240.127 L 222.600 240.200 224.400 241.466 M219.346 308.829 C 221.465 310.496,219.863 313.647,216.324 314.775 C 214.752 315.277,212.676 314.623,212.302 313.508 C 212.045 312.744,210.457 313.739,209.000 315.577 C 205.655 319.798,203.199 319.677,200.294 315.148 C 198.485 312.328,197.003 311.923,195.400 313.810 C 192.559 317.155,185.554 312.623,187.614 308.774 C 188.282 307.525,217.754 307.576,219.346 308.829 " stroke="none" fill="#fbfaf9" fill-rule="evenodd"></path><path id="path2" d="M64.832 7.833 C 64.814 8.292,65.040 8.667,65.333 8.667 C 65.627 8.667,65.867 8.435,65.867 8.151 C 65.867 7.867,65.732 7.718,65.567 7.820 C 65.403 7.922,65.177 7.779,65.066 7.502 C 64.954 7.226,64.849 7.375,64.832 7.833 M177.430 17.258 C 177.007 17.666,176.827 17.997,177.030 17.994 C 177.682 17.983,178.502 17.305,178.349 16.904 C 178.267 16.691,177.854 16.850,177.430 17.258 M223.200 16.689 C 223.200 17.192,224.343 18.190,224.612 17.921 C 224.718 17.815,224.444 17.402,224.002 17.002 C 223.561 16.603,223.200 16.462,223.200 16.689 M151.467 21.867 C 151.006 22.327,151.175 22.800,151.800 22.800 C 152.130 22.800,152.400 22.530,152.400 22.200 C 152.400 21.575,151.927 21.406,151.467 21.867 M293.439 35.938 C 293.300 36.161,293.382 36.465,293.620 36.612 C 294.235 36.993,294.632 36.472,294.118 35.958 C 293.831 35.671,293.607 35.664,293.439 35.938 M375.800 126.400 C 375.664 126.620,375.608 126.814,375.676 126.831 C 376.993 127.157,377.217 127.103,376.773 126.568 C 376.213 125.893,376.123 125.877,375.800 126.400 M380.533 137.722 C 380.533 138.022,380.778 138.267,381.078 138.267 C 381.685 138.267,381.579 137.526,380.942 137.314 C 380.717 137.239,380.533 137.423,380.533 137.722 M295.400 174.814 C 287.307 176.422,274.438 182.743,258.400 192.987 C 249.662 198.568,249.232 198.887,245.715 202.400 C 242.872 205.238,241.101 208.021,240.297 210.912 L 239.653 213.224 241.157 214.219 C 250.391 220.330,297.571 205.505,303.530 194.621 C 304.496 192.855,304.470 181.636,303.491 178.200 C 302.299 174.018,301.368 173.628,295.400 174.814 M101.121 175.263 C 99.202 176.780,98.103 183.451,98.592 190.618 L 98.879 194.827 101.003 196.986 C 102.866 198.879,104.096 199.820,107.400 201.883 C 124.048 212.278,164.000 219.946,164.000 212.747 C 164.000 210.624,161.603 206.415,158.565 203.201 C 155.378 199.832,151.758 197.243,143.068 192.119 C 140.906 190.843,138.656 189.485,138.068 189.099 C 137.481 188.714,136.428 188.132,135.729 187.806 C 135.030 187.480,133.500 186.644,132.329 185.948 C 119.567 178.360,103.961 173.017,101.121 175.263 M9.236 181.533 C 8.953 182.062,8.982 182.267,9.342 182.267 C 9.616 182.267,9.865 181.937,9.895 181.533 C 9.925 181.130,9.878 180.800,9.789 180.800 C 9.701 180.800,9.452 181.130,9.236 181.533 M391.600 227.867 C 391.600 228.160,391.761 228.400,391.957 228.400 C 392.154 228.400,392.407 228.160,392.519 227.867 C 392.632 227.573,392.471 227.333,392.162 227.333 C 391.853 227.333,391.600 227.573,391.600 227.867 M186.800 241.182 C 182.057 242.727,180.400 246.018,180.400 253.890 C 180.400 258.806,181.196 263.043,182.461 264.862 C 182.868 265.446,183.204 266.076,183.209 266.262 C 183.224 266.830,186.479 270.163,188.644 271.828 C 192.160 274.531,192.402 274.675,198.648 277.763 C 203.824 280.321,203.587 279.902,203.595 286.526 C 203.600 291.669,203.348 292.576,201.799 292.965 C 201.152 293.127,200.284 293.989,199.436 295.311 C 197.022 299.074,197.756 298.871,187.080 298.727 C 178.342 298.609,177.620 298.544,176.800 297.800 C 176.010 297.083,175.269 296.989,169.659 296.891 C 161.955 296.757,161.570 296.924,163.965 299.364 C 165.523 300.952,165.767 301.450,166.070 303.670 C 166.640 307.834,167.132 308.800,168.686 308.800 C 170.264 308.800,171.328 310.240,171.973 313.249 C 172.444 315.446,175.384 322.000,175.898 322.000 C 177.619 322.000,177.793 321.185,178.000 312.133 L 178.200 303.400 179.800 303.269 C 180.680 303.196,183.290 303.466,185.600 303.869 C 191.501 304.896,217.987 304.932,224.400 303.921 C 234.070 302.397,233.199 301.640,233.202 311.580 C 233.204 319.312,233.215 319.414,234.195 320.600 L 235.186 321.800 235.985 320.800 C 236.424 320.250,236.981 319.170,237.222 318.400 C 237.711 316.837,238.145 315.800,239.918 311.957 C 241.090 309.415,241.200 309.305,242.801 309.091 C 244.988 308.797,245.054 308.669,246.629 301.676 C 246.942 300.287,247.386 298.801,247.615 298.372 C 248.641 296.454,236.261 295.925,234.238 297.800 L 233.159 298.800 224.821 298.800 L 216.483 298.800 215.341 297.453 C 214.714 296.712,213.689 295.441,213.064 294.629 C 212.439 293.817,211.491 292.987,210.957 292.784 C 209.558 292.252,209.195 290.876,209.240 286.274 C 209.298 280.359,209.209 280.519,213.720 278.200 C 220.581 274.673,223.883 271.633,226.467 266.467 L 228.200 263.002 228.200 254.943 L 228.200 246.884 226.563 244.942 C 225.662 243.874,224.042 242.550,222.963 242.000 L 221.000 241.000 204.400 240.928 C 195.270 240.888,187.350 241.003,186.800 241.182 M188.900 309.612 C 187.172 310.307,187.787 311.474,190.674 312.977 C 192.969 314.172,193.845 314.014,195.321 312.136 C 196.876 310.160,199.786 311.609,201.809 315.366 C 203.247 318.036,205.328 317.865,208.066 314.853 C 210.723 311.931,211.424 311.685,213.353 312.994 C 215.193 314.243,215.458 314.242,217.307 312.986 C 218.856 311.933,219.259 310.619,218.320 309.680 C 217.738 309.098,190.337 309.035,188.900 309.612 M126.600 379.600 C 126.998 380.040,127.348 380.400,127.377 380.400 C 127.406 380.400,127.457 380.040,127.490 379.600 C 127.533 379.036,127.304 378.800,126.713 378.800 C 125.901 378.800,125.898 378.824,126.600 379.600 M149.600 386.951 C 149.600 387.034,149.870 387.326,150.200 387.600 C 150.691 388.008,150.800 387.980,150.800 387.449 C 150.800 387.092,150.530 386.800,150.200 386.800 C 149.870 386.800,149.600 386.868,149.600 386.951 M250.800 387.449 C 250.800 387.980,250.909 388.008,251.400 387.600 C 251.730 387.326,252.000 387.034,252.000 386.951 C 252.000 386.868,251.730 386.800,251.400 386.800 C 251.070 386.800,250.800 387.092,250.800 387.449 M163.762 390.462 C 163.585 390.748,163.652 390.815,163.938 390.638 C 164.192 390.481,164.400 390.543,164.400 390.776 C 164.400 391.009,164.574 391.200,164.787 391.200 C 165.001 391.200,165.071 390.930,164.945 390.600 C 164.670 389.884,164.156 389.824,163.762 390.462 M191.827 393.107 C 191.549 393.384,192.371 394.400,192.873 394.400 C 193.079 394.400,193.120 394.175,192.965 393.900 C 192.739 393.500,192.790 393.500,193.221 393.900 C 193.955 394.581,194.610 394.535,194.036 393.843 C 193.519 393.221,192.164 392.769,191.827 393.107 M208.541 393.219 C 207.645 393.558,206.900 394.400,207.496 394.400 C 207.685 394.400,208.082 394.175,208.379 393.900 C 208.810 393.500,208.861 393.500,208.635 393.900 C 208.249 394.585,208.991 394.534,209.570 393.836 C 210.170 393.113,209.647 392.800,208.541 393.219 " stroke="none" fill="#090806" fill-rule="evenodd"></path><path id="path3" d="M46.452 6.137 C 46.207 6.432,46.125 6.792,46.270 6.937 C 46.415 7.082,46.229 7.200,45.858 7.200 C 45.487 7.200,44.978 7.650,44.727 8.200 C 44.477 8.750,44.142 9.200,43.984 9.200 C 43.826 9.200,43.461 9.785,43.172 10.500 C 42.883 11.215,42.411 11.944,42.123 12.120 C 41.836 12.296,41.594 12.926,41.587 13.520 C 41.575 14.578,40.702 16.169,40.335 15.801 C 40.232 15.699,40.110 16.467,40.063 17.508 C 40.009 18.707,39.726 19.625,39.289 20.014 C 38.432 20.777,38.448 20.688,38.368 25.373 C 38.317 28.411,38.188 29.204,37.772 29.045 C 37.415 28.908,37.322 29.053,37.488 29.486 C 37.651 29.910,37.579 30.034,37.277 29.848 C 36.934 29.636,36.821 34.180,36.829 47.802 C 36.839 63.501,36.923 66.072,37.430 66.267 C 37.843 66.425,37.899 66.640,37.617 66.980 C 37.339 67.314,37.394 67.704,37.794 68.233 C 38.228 68.806,38.378 70.268,38.387 74.025 C 38.398 78.446,38.494 79.150,39.181 79.888 C 39.859 80.615,39.971 81.371,40.025 85.586 C 40.060 88.258,40.180 90.353,40.292 90.242 C 41.003 89.531,41.600 91.417,41.600 94.371 C 41.600 97.208,41.687 97.600,42.316 97.600 C 43.057 97.600,45.200 101.262,45.200 102.527 C 45.200 103.578,47.914 115.012,49.442 120.400 C 51.973 129.320,55.657 140.419,57.210 143.800 C 58.007 145.535,59.600 150.128,59.600 150.691 C 59.600 151.018,58.250 154.067,56.600 157.465 C 54.950 160.864,53.600 163.757,53.600 163.896 C 53.600 164.034,53.258 164.879,52.840 165.774 C 50.026 171.800,45.048 185.001,43.973 189.293 C 43.767 190.114,43.353 191.464,43.051 192.293 C 42.750 193.122,42.137 195.240,41.688 197.000 C 41.240 198.760,40.565 201.370,40.188 202.800 C 39.812 204.230,39.276 206.570,38.998 208.000 C 38.720 209.430,38.296 211.590,38.055 212.800 C 36.299 221.621,35.169 231.260,34.163 246.000 C 33.851 250.585,35.449 260.485,36.779 262.200 C 36.950 262.420,37.215 263.140,37.368 263.800 C 37.819 265.741,41.615 273.671,43.532 276.674 C 44.119 277.595,45.128 279.215,45.773 280.274 C 46.418 281.334,47.588 283.048,48.373 284.085 C 49.158 285.122,50.520 286.922,51.399 288.085 C 56.596 294.958,65.740 304.312,74.578 311.800 C 75.877 312.900,77.731 314.477,78.698 315.303 C 80.591 316.922,89.727 323.769,93.000 326.023 C 94.100 326.780,95.090 327.498,95.200 327.618 C 95.383 327.818,102.364 332.359,104.210 333.479 C 104.644 333.743,106.260 334.733,107.800 335.678 C 109.340 336.624,111.050 337.630,111.600 337.914 C 112.150 338.197,113.320 338.865,114.200 339.398 C 117.742 341.544,134.337 350.000,135.005 350.000 C 135.229 350.000,136.125 350.382,136.997 350.849 C 138.888 351.863,148.813 355.913,150.800 356.482 C 151.570 356.703,152.380 357.022,152.600 357.192 C 152.820 357.361,154.890 358.079,157.200 358.787 C 159.510 359.494,161.760 360.242,162.200 360.450 C 163.354 360.994,170.581 362.802,180.400 365.003 C 189.735 367.095,204.310 367.536,215.400 366.062 C 221.827 365.208,229.742 363.807,230.386 363.409 C 230.576 363.291,231.962 362.942,233.466 362.631 C 234.970 362.321,237.460 361.705,239.000 361.263 C 240.540 360.820,242.790 360.177,244.000 359.833 C 245.210 359.490,246.560 359.041,247.000 358.836 C 247.440 358.630,248.340 358.350,249.000 358.212 C 249.660 358.075,251.100 357.621,252.200 357.204 C 260.681 353.989,264.432 352.488,268.300 350.760 C 269.235 350.342,270.855 349.622,271.900 349.159 C 275.816 347.427,288.082 341.165,290.000 339.919 C 290.550 339.562,291.922 338.759,293.048 338.135 C 298.664 335.023,307.459 329.312,312.044 325.800 C 312.619 325.360,313.491 324.730,313.983 324.400 C 321.407 319.418,335.576 306.221,343.071 297.306 C 348.628 290.696,356.112 279.328,358.742 273.500 C 359.214 272.455,359.960 270.815,360.400 269.856 C 360.840 268.897,361.200 267.979,361.200 267.817 C 361.200 267.654,361.456 266.954,361.768 266.260 C 362.395 264.869,363.893 259.547,365.051 254.600 C 365.890 251.017,365.973 241.943,365.241 233.800 C 364.323 223.577,363.549 216.510,363.204 215.200 C 363.001 214.430,362.657 212.450,362.438 210.800 C 361.752 205.614,358.322 191.219,357.007 188.000 C 356.692 187.230,356.258 185.970,356.043 185.200 C 354.291 178.935,347.407 163.549,342.467 154.860 C 340.011 150.540,340.066 149.152,342.999 141.600 C 343.298 140.830,344.275 137.770,345.169 134.800 C 346.063 131.830,347.133 128.320,347.546 127.000 C 347.959 125.680,348.667 123.250,349.119 121.600 C 349.571 119.950,350.145 117.880,350.395 117.000 C 352.899 108.181,354.108 103.577,354.799 100.223 C 355.289 97.845,356.922 95.200,357.900 95.200 C 358.257 95.200,358.400 94.320,358.400 92.133 C 358.400 90.447,358.518 89.185,358.663 89.330 C 359.477 90.144,360.000 88.508,360.000 85.151 C 360.000 82.382,360.123 81.600,360.557 81.600 C 361.394 81.600,361.600 80.676,361.600 76.911 C 361.600 74.113,361.728 73.395,362.300 72.977 C 362.901 72.537,363.018 71.629,363.127 66.533 C 363.235 61.545,363.362 60.518,363.927 60.083 C 364.738 59.460,365.172 29.600,364.371 29.600 C 364.141 29.600,364.051 29.440,364.172 29.245 C 364.293 29.050,364.123 28.668,363.796 28.396 C 363.367 28.041,363.200 27.078,363.200 24.965 C 363.200 22.438,363.088 21.968,362.400 21.600 C 361.737 21.245,361.600 20.762,361.600 18.786 C 361.600 17.474,361.465 16.421,361.300 16.447 C 360.241 16.615,360.000 16.273,360.000 14.603 C 360.000 13.240,359.807 12.686,359.200 12.307 C 358.760 12.032,358.400 11.414,358.400 10.932 C 358.400 10.451,358.154 9.811,357.853 9.510 C 357.552 9.209,357.180 8.566,357.026 8.081 C 356.872 7.597,356.500 7.200,356.200 7.200 C 355.900 7.200,355.540 6.840,355.400 6.400 C 355.014 5.183,347.467 5.183,346.707 6.400 C 346.281 7.082,345.774 7.200,343.266 7.200 C 340.662 7.200,340.301 7.291,340.116 8.000 C 340.001 8.440,339.737 8.800,339.530 8.800 C 339.322 8.800,339.280 8.575,339.435 8.300 C 339.661 7.900,339.610 7.900,339.179 8.300 C 338.882 8.575,337.950 8.800,337.107 8.800 C 336.023 8.800,335.490 9.005,335.287 9.500 C 335.080 10.004,334.527 10.207,333.313 10.226 C 332.325 10.241,331.319 10.531,330.882 10.926 C 330.472 11.297,329.663 11.600,329.083 11.600 C 328.438 11.600,327.862 11.911,327.600 12.400 C 327.365 12.840,326.833 13.200,326.419 13.200 C 325.240 13.200,324.400 13.634,324.400 14.243 C 324.400 14.725,323.042 15.043,321.866 14.836 C 321.682 14.804,321.436 15.142,321.319 15.589 C 321.202 16.035,320.813 16.421,320.453 16.446 C 320.094 16.472,319.620 16.534,319.400 16.585 C 319.180 16.636,318.781 16.706,318.513 16.739 C 318.244 16.773,318.129 17.070,318.255 17.400 C 318.424 17.839,318.205 18.000,317.443 18.000 C 316.667 18.000,316.400 18.205,316.400 18.800 C 316.400 19.379,316.133 19.600,315.433 19.600 C 313.982 19.600,313.224 19.998,313.468 20.633 C 313.622 21.034,313.376 21.200,312.625 21.200 C 311.842 21.200,311.596 21.381,311.682 21.891 C 311.801 22.585,311.641 22.658,309.800 22.750 C 309.083 22.786,308.800 23.027,308.800 23.600 C 308.800 24.117,308.533 24.400,308.047 24.400 C 307.630 24.400,307.200 24.757,307.084 25.200 C 306.960 25.674,306.538 26.000,306.050 26.000 C 305.445 26.000,305.293 26.177,305.481 26.666 C 305.652 27.113,305.583 27.236,305.268 27.042 C 305.011 26.883,304.800 26.943,304.800 27.176 C 304.800 27.409,304.665 27.581,304.500 27.557 C 303.815 27.458,302.426 28.118,302.628 28.445 C 302.749 28.640,302.577 28.800,302.246 28.800 C 301.916 28.800,301.410 29.127,301.123 29.526 C 300.835 29.926,300.285 30.370,299.900 30.514 C 299.515 30.657,299.200 31.051,299.200 31.387 C 299.200 31.724,298.942 32.000,298.627 32.000 C 298.312 32.000,297.940 32.360,297.800 32.800 C 297.660 33.240,297.198 33.600,296.773 33.600 C 296.081 33.600,295.814 34.022,295.953 34.900 C 295.979 35.065,295.657 35.200,295.237 35.200 C 294.672 35.200,294.529 35.407,294.684 36.000 C 294.846 36.620,294.696 36.800,294.018 36.800 C 293.168 36.800,292.172 37.484,292.114 38.108 C 291.858 40.886,291.706 41.103,285.450 47.600 C 283.438 49.690,280.911 52.390,279.834 53.600 C 278.758 54.810,277.312 56.430,276.621 57.200 C 275.930 57.970,273.764 60.580,271.808 63.000 C 269.851 65.420,268.140 67.490,268.005 67.600 C 267.869 67.710,267.159 68.646,266.427 69.679 C 264.959 71.750,264.095 72.079,262.000 71.367 C 260.386 70.818,254.506 69.010,251.000 67.984 C 249.680 67.598,246.800 66.893,244.600 66.418 C 242.400 65.942,239.520 65.299,238.200 64.988 C 236.880 64.678,234.900 64.316,233.800 64.184 C 232.700 64.053,230.450 63.687,228.800 63.372 C 218.373 61.379,190.393 61.099,175.000 62.833 C 165.435 63.911,152.025 67.079,141.637 70.715 C 137.568 72.140,137.380 72.100,134.736 69.258 C 130.076 64.249,118.688 52.335,113.700 47.251 C 108.998 42.458,108.400 41.696,108.400 40.489 C 108.400 39.085,106.728 36.800,105.701 36.800 C 105.426 36.800,105.200 36.524,105.200 36.187 C 105.200 35.850,104.795 35.411,104.300 35.212 C 103.805 35.013,103.575 34.839,103.789 34.825 C 104.168 34.801,101.612 32.233,101.187 32.211 C 101.070 32.205,100.479 31.750,99.873 31.200 C 97.609 29.142,97.339 28.954,96.877 29.108 C 96.618 29.194,96.228 28.800,96.012 28.233 C 95.796 27.665,95.345 27.200,95.010 27.200 C 94.674 27.200,94.400 26.930,94.400 26.600 C 94.400 26.267,94.044 26.000,93.600 26.000 C 93.067 26.000,92.800 25.733,92.800 25.200 C 92.800 24.683,92.533 24.400,92.047 24.400 C 91.630 24.400,91.200 24.043,91.084 23.600 C 90.969 23.160,90.541 22.800,90.134 22.800 C 89.726 22.800,89.168 22.440,88.893 22.000 C 88.618 21.560,88.035 21.200,87.597 21.200 C 87.148 21.200,86.800 20.932,86.800 20.587 C 86.800 20.251,86.485 19.857,86.100 19.714 C 85.715 19.570,85.165 19.126,84.877 18.726 C 84.590 18.327,84.033 18.000,83.639 18.000 C 83.246 18.000,82.598 17.640,82.200 17.200 C 81.802 16.760,81.246 16.400,80.965 16.400 C 80.684 16.400,80.346 16.061,80.215 15.646 C 80.083 15.232,79.756 14.900,79.488 14.909 C 77.922 14.963,77.200 14.735,77.200 14.187 C 77.200 13.851,76.885 13.461,76.500 13.322 C 76.115 13.183,75.322 12.739,74.738 12.335 C 74.154 11.931,73.409 11.600,73.081 11.600 C 72.754 11.600,72.386 11.340,72.264 11.022 C 72.142 10.704,71.415 10.327,70.649 10.183 C 69.882 10.039,69.159 9.669,69.040 9.361 C 68.896 8.985,68.176 8.800,66.859 8.800 C 65.230 8.800,64.858 8.663,64.684 8.000 C 64.509 7.330,64.138 7.200,62.400 7.200 C 60.662 7.200,60.291 7.070,60.116 6.400 C 59.850 5.383,47.279 5.141,46.452 6.137 M130.959 135.666 C 132.302 136.143,133.684 136.773,134.031 137.066 C 134.379 137.360,134.803 137.600,134.975 137.600 C 135.562 137.600,140.356 141.633,142.179 143.661 C 147.303 149.360,148.293 158.615,144.085 161.462 C 137.290 166.057,112.614 166.640,108.648 162.299 C 97.869 150.496,115.028 130.012,130.959 135.666 M278.058 135.588 C 286.937 138.342,293.600 145.897,293.600 153.209 C 293.600 156.875,290.115 163.992,288.316 164.001 C 288.252 164.001,286.670 164.271,284.800 164.600 C 275.391 166.257,257.676 164.337,254.285 161.292 C 251.148 158.473,251.284 151.253,254.574 146.042 C 255.556 144.486,260.714 139.200,261.250 139.200 C 261.411 139.200,261.781 138.969,262.071 138.688 C 265.556 135.309,272.696 133.925,278.058 135.588 M302.312 174.507 C 304.084 176.393,304.789 180.009,304.795 187.240 L 304.800 193.880 303.657 195.440 C 301.219 198.769,296.885 201.925,290.596 204.952 C 288.398 206.010,286.122 207.129,285.538 207.438 C 284.954 207.747,284.254 208.000,283.982 208.000 C 283.710 208.000,282.748 208.333,281.844 208.740 C 278.113 210.420,269.338 212.920,263.200 214.051 C 261.990 214.274,259.740 214.752,258.200 215.114 C 256.215 215.579,253.470 215.775,248.771 215.785 L 242.142 215.800 240.671 214.680 C 236.852 211.771,243.533 201.288,252.548 196.045 C 253.456 195.517,254.572 194.750,255.026 194.342 C 255.480 193.934,256.052 193.600,256.297 193.600 C 256.542 193.600,256.990 193.353,257.291 193.052 C 257.592 192.750,258.370 192.205,259.020 191.840 C 259.669 191.474,260.681 190.866,261.268 190.488 C 267.092 186.739,277.855 180.800,278.826 180.800 C 279.032 180.800,279.200 180.632,279.200 180.427 C 279.200 180.222,279.605 179.930,280.100 179.779 C 281.177 179.450,284.975 177.775,286.462 176.973 C 287.046 176.658,287.768 176.400,288.068 176.400 C 288.367 176.400,289.284 176.040,290.104 175.600 C 290.925 175.160,292.093 174.790,292.699 174.777 C 293.304 174.765,294.430 174.516,295.200 174.225 C 297.646 173.300,301.315 173.445,302.312 174.507 M111.436 175.616 C 112.382 176.047,113.453 176.400,113.816 176.400 C 114.179 176.400,114.954 176.656,115.538 176.969 C 116.122 177.282,117.500 177.932,118.600 178.414 C 121.307 179.600,131.416 184.664,133.400 185.829 C 134.280 186.345,135.540 187.046,136.200 187.387 C 136.860 187.727,138.061 188.409,138.868 188.903 C 139.675 189.396,141.538 190.520,143.006 191.400 C 144.475 192.280,146.088 193.270,146.590 193.600 C 147.092 193.930,148.582 194.831,149.902 195.601 C 152.945 197.379,155.017 199.069,158.569 202.669 C 164.438 208.616,165.952 212.916,162.907 214.986 C 161.296 216.080,152.339 216.438,147.400 215.604 C 140.951 214.515,139.556 214.239,137.200 213.583 C 135.770 213.185,133.743 212.735,132.695 212.583 C 131.647 212.432,130.701 212.164,130.593 211.989 C 130.485 211.813,129.632 211.545,128.698 211.393 C 127.764 211.242,126.460 210.876,125.800 210.582 C 125.140 210.288,123.843 209.851,122.917 209.613 C 121.991 209.374,121.126 209.003,120.993 208.789 C 120.861 208.575,120.376 208.400,119.915 208.400 C 118.706 208.400,108.970 203.792,107.569 202.557 C 107.221 202.250,106.758 202.000,106.538 202.000 C 105.923 202.000,101.572 198.521,99.929 196.714 C 96.820 193.295,97.401 177.571,100.737 174.861 C 101.728 174.057,109.164 174.581,111.436 175.616 M209.200 215.991 C 234.002 218.868,253.005 232.481,264.488 255.600 C 266.971 260.599,270.133 268.225,270.582 270.300 C 270.737 271.015,271.119 271.627,271.432 271.660 C 271.744 271.693,272.158 271.738,272.352 271.760 C 272.546 271.782,274.426 270.214,276.529 268.276 C 284.960 260.507,304.242 248.400,308.183 248.400 C 308.346 248.400,309.046 248.151,309.740 247.847 C 311.413 247.112,315.850 245.731,317.600 245.399 C 318.370 245.254,319.900 244.887,321.000 244.586 C 331.133 241.807,352.715 241.185,362.300 243.395 L 365.200 244.064 365.198 246.532 C 365.194 251.350,362.361 263.418,360.018 268.600 C 359.819 269.040,359.150 270.570,358.532 272.000 C 356.869 275.845,355.682 277.924,351.455 284.397 C 348.175 289.421,345.160 293.605,343.220 295.827 C 342.439 296.722,340.874 298.522,339.743 299.827 C 333.027 307.576,321.380 318.171,312.600 324.520 C 310.113 326.318,299.892 333.169,298.000 334.306 C 293.393 337.073,287.107 340.679,284.275 342.178 C 282.474 343.131,280.460 344.199,279.800 344.552 C 277.736 345.655,268.434 350.000,268.136 350.000 C 267.827 350.000,264.878 351.292,263.068 352.220 C 262.445 352.539,261.752 352.800,261.528 352.800 C 261.304 352.800,260.554 353.062,259.860 353.382 C 259.167 353.702,257.790 354.255,256.800 354.610 C 249.753 357.138,245.442 358.596,243.200 359.211 C 241.770 359.603,239.250 360.319,237.600 360.801 C 235.950 361.284,233.340 361.918,231.800 362.211 C 230.260 362.503,228.550 362.913,228.000 363.122 C 227.450 363.330,226.010 363.628,224.800 363.783 C 223.590 363.939,221.508 364.311,220.174 364.610 C 211.478 366.560,190.998 366.563,183.200 364.616 C 181.990 364.314,180.014 363.939,178.808 363.783 C 177.603 363.627,175.915 363.252,175.058 362.950 C 174.201 362.647,173.102 362.400,172.617 362.400 C 171.726 362.400,170.428 362.036,161.000 359.139 C 156.037 357.614,153.601 356.771,149.600 355.194 C 148.610 354.804,147.080 354.205,146.200 353.862 C 140.764 351.743,129.058 346.503,125.400 344.551 C 124.740 344.199,122.490 343.010,120.400 341.909 C 118.310 340.808,116.420 339.766,116.200 339.594 C 115.980 339.421,114.668 338.677,113.283 337.940 C 111.899 337.203,110.279 336.323,109.683 335.985 C 106.653 334.265,97.332 328.214,92.400 324.767 C 89.432 322.692,83.065 317.917,81.490 316.586 C 81.220 316.358,79.830 315.211,78.400 314.037 C 64.982 303.021,50.338 287.101,45.437 278.200 C 45.073 277.540,44.430 276.460,44.009 275.800 C 37.117 265.020,32.276 245.326,36.039 243.380 C 37.475 242.637,45.486 241.737,54.000 241.360 C 67.980 240.742,86.751 244.339,96.062 249.421 C 96.646 249.739,97.319 250.000,97.557 250.000 C 100.475 250.000,117.106 261.658,124.302 268.747 C 127.714 272.109,128.942 272.674,129.419 271.100 C 130.134 268.746,135.398 258.523,139.007 252.481 C 154.503 226.536,181.065 212.728,209.200 215.991 " stroke="none" fill="#fba004" fill-rule="evenodd"></path><path id="path4" d="M295.200 174.225 C 294.430 174.516,293.304 174.765,292.699 174.777 C 292.093 174.790,290.925 175.160,290.104 175.600 C 289.284 176.040,288.367 176.400,288.068 176.400 C 287.768 176.400,287.046 176.658,286.462 176.973 C 284.975 177.775,281.177 179.450,280.100 179.779 C 279.605 179.930,279.200 180.222,279.200 180.427 C 279.200 180.632,279.032 180.800,278.826 180.800 C 277.855 180.800,267.092 186.739,261.268 190.488 C 260.681 190.866,259.669 191.474,259.020 191.840 C 258.370 192.205,257.592 192.750,257.291 193.052 C 256.990 193.353,256.542 193.600,256.297 193.600 C 256.052 193.600,255.480 193.934,255.026 194.342 C 254.572 194.750,253.456 195.517,252.548 196.045 C 243.533 201.288,236.852 211.771,240.671 214.680 L 242.142 215.800 248.771 215.785 C 253.470 215.775,256.215 215.579,258.200 215.114 C 259.740 214.752,261.990 214.274,263.200 214.051 C 269.338 212.920,278.113 210.420,281.844 208.740 C 282.748 208.333,283.710 208.000,283.982 208.000 C 284.254 208.000,284.954 207.747,285.538 207.438 C 286.122 207.129,288.398 206.010,290.596 204.952 C 296.885 201.925,301.219 198.769,303.657 195.440 L 304.800 193.880 304.795 187.240 C 304.785 174.965,302.268 171.551,295.200 174.225 M301.704 174.902 C 304.066 176.824,305.398 191.208,303.530 194.621 C 299.646 201.715,278.265 211.169,259.200 214.221 C 248.313 215.964,243.793 215.963,241.157 214.219 L 239.653 213.224 240.297 210.912 C 241.101 208.021,242.872 205.238,245.715 202.400 C 249.232 198.887,249.662 198.568,258.400 192.987 C 268.467 186.557,279.280 180.629,286.200 177.748 C 290.316 176.034,292.057 175.478,295.400 174.814 C 300.202 173.860,300.427 173.863,301.704 174.902 M100.737 174.861 C 97.401 177.571,96.820 193.295,99.929 196.714 C 101.572 198.521,105.923 202.000,106.538 202.000 C 106.758 202.000,107.221 202.250,107.569 202.557 C 108.970 203.792,118.706 208.400,119.915 208.400 C 120.376 208.400,120.861 208.575,120.993 208.789 C 121.126 209.003,121.991 209.374,122.917 209.613 C 123.843 209.851,125.140 210.288,125.800 210.582 C 126.460 210.876,127.764 211.242,128.698 211.393 C 129.632 211.545,130.485 211.813,130.593 211.989 C 130.701 212.164,131.647 212.432,132.695 212.583 C 133.743 212.735,135.770 213.185,137.200 213.583 C 139.556 214.239,140.951 214.515,147.400 215.604 C 152.339 216.438,161.296 216.080,162.907 214.986 C 165.952 212.916,164.438 208.616,158.569 202.669 C 155.017 199.069,152.945 197.379,149.902 195.601 C 148.582 194.831,147.092 193.930,146.590 193.600 C 146.088 193.270,144.475 192.280,143.006 191.400 C 141.538 190.520,139.675 189.396,138.868 188.903 C 138.061 188.409,136.860 187.727,136.200 187.387 C 135.540 187.046,134.280 186.345,133.400 185.829 C 131.416 184.664,121.307 179.600,118.600 178.414 C 117.500 177.932,116.122 177.282,115.538 176.969 C 114.954 176.656,114.179 176.400,113.816 176.400 C 113.453 176.400,112.382 176.047,111.436 175.616 C 109.164 174.581,101.728 174.057,100.737 174.861 M110.650 176.010 C 116.795 178.003,126.279 182.351,132.329 185.948 C 133.500 186.644,135.030 187.480,135.729 187.806 C 136.428 188.132,137.481 188.714,138.068 189.099 C 138.656 189.485,140.906 190.843,143.068 192.119 C 151.758 197.243,155.378 199.832,158.565 203.201 C 161.603 206.415,164.000 210.624,164.000 212.747 C 164.000 219.946,124.048 212.278,107.400 201.883 C 104.096 199.820,102.866 198.879,101.003 196.986 L 98.879 194.827 98.592 190.618 C 98.103 183.451,99.202 176.780,101.121 175.263 C 102.092 174.495,107.220 174.897,110.650 176.010 M185.528 240.384 C 183.789 240.922,181.693 242.945,180.273 245.456 C 179.027 247.660,178.951 259.980,180.167 262.813 C 181.305 265.464,184.287 269.817,185.732 270.937 C 186.430 271.477,187.367 272.252,187.815 272.659 C 188.983 273.720,191.039 275.147,192.094 275.628 C 192.592 275.855,193.720 276.478,194.600 277.011 C 195.480 277.545,196.650 278.176,197.200 278.414 C 197.750 278.652,199.145 279.291,200.300 279.835 L 202.400 280.823 202.400 286.124 L 202.400 291.425 201.300 291.842 C 200.695 292.071,199.662 293.055,199.004 294.029 C 198.346 295.003,197.356 296.310,196.804 296.934 L 195.800 298.068 187.600 297.804 C 180.098 297.562,179.217 297.457,177.252 296.570 C 174.227 295.204,162.918 295.082,161.600 296.400 C 160.521 297.479,160.521 297.478,162.952 300.112 C 165.067 302.402,165.088 302.451,165.320 305.509 C 165.583 308.996,166.302 309.998,168.544 310.003 C 169.764 310.006,169.827 310.095,170.724 313.103 C 171.609 316.070,172.824 319.125,173.627 320.400 C 173.835 320.730,174.307 321.585,174.677 322.300 C 175.479 323.854,176.316 323.941,177.742 322.619 L 178.800 321.638 178.800 312.967 L 178.800 304.297 181.300 304.581 C 182.675 304.737,185.780 305.029,188.200 305.229 C 190.620 305.428,193.860 305.768,195.400 305.983 C 199.590 306.568,210.287 306.478,216.187 305.808 C 222.801 305.057,229.451 304.368,231.000 304.273 L 232.200 304.200 232.400 312.400 L 232.600 320.600 233.747 322.100 C 234.379 322.925,235.038 323.600,235.212 323.600 C 235.837 323.600,237.538 321.193,237.819 319.910 C 237.977 319.189,238.443 317.973,238.853 317.206 C 239.264 316.439,239.600 315.516,239.600 315.155 C 239.600 314.794,239.852 314.289,240.161 314.033 C 240.469 313.777,240.843 313.080,240.992 312.484 C 241.404 310.831,242.367 310.000,243.871 310.000 C 244.964 310.000,245.301 309.794,245.665 308.900 C 245.911 308.295,246.357 307.233,246.656 306.540 C 246.955 305.846,247.200 304.897,247.200 304.430 C 247.200 303.962,247.560 302.556,248.000 301.304 C 249.879 295.959,249.475 295.600,241.589 295.600 L 235.337 295.600 233.469 296.837 L 231.601 298.074 224.226 297.785 L 216.850 297.496 215.625 295.971 C 214.951 295.133,214.400 294.296,214.400 294.112 C 214.400 293.660,212.958 292.455,211.769 291.913 C 210.824 291.483,210.800 291.355,210.805 286.836 C 210.812 280.944,210.900 280.653,212.934 279.777 C 213.850 279.382,215.054 278.866,215.610 278.629 C 218.654 277.334,225.600 271.425,225.600 270.130 C 225.600 269.839,225.754 269.600,225.943 269.600 C 227.718 269.600,229.921 260.800,229.971 253.515 C 230.014 247.144,228.830 244.582,224.400 241.466 L 222.600 240.200 204.600 240.127 C 194.700 240.086,186.118 240.202,185.528 240.384 M222.963 242.000 C 224.042 242.550,225.662 243.874,226.563 244.942 L 228.200 246.884 228.200 254.943 L 228.200 263.002 226.467 266.467 C 223.883 271.633,220.581 274.673,213.720 278.200 C 209.209 280.519,209.298 280.359,209.240 286.274 C 209.195 290.876,209.558 292.252,210.957 292.784 C 211.491 292.987,212.439 293.817,213.064 294.629 C 213.689 295.441,214.714 296.712,215.341 297.453 L 216.483 298.800 224.821 298.800 L 233.159 298.800 234.238 297.800 C 236.261 295.925,248.641 296.454,247.615 298.372 C 247.386 298.801,246.942 300.287,246.629 301.676 C 245.054 308.669,244.988 308.797,242.801 309.091 C 241.200 309.305,241.090 309.415,239.918 311.957 C 238.145 315.800,237.711 316.837,237.222 318.400 C 236.981 319.170,236.424 320.250,235.985 320.800 L 235.186 321.800 234.195 320.600 C 233.215 319.414,233.204 319.312,233.202 311.580 C 233.199 301.640,234.070 302.397,224.400 303.921 C 217.987 304.932,191.501 304.896,185.600 303.869 C 183.290 303.466,180.680 303.196,179.800 303.269 L 178.200 303.400 178.000 312.133 C 177.793 321.185,177.619 322.000,175.898 322.000 C 175.384 322.000,172.444 315.446,171.973 313.249 C 171.328 310.240,170.264 308.800,168.686 308.800 C 167.132 308.800,166.640 307.834,166.070 303.670 C 165.767 301.450,165.523 300.952,163.965 299.364 C 161.570 296.924,161.955 296.757,169.659 296.891 C 175.269 296.989,176.010 297.083,176.800 297.800 C 177.620 298.544,178.342 298.609,187.080 298.727 C 197.756 298.871,197.022 299.074,199.436 295.311 C 200.284 293.989,201.152 293.127,201.799 292.965 C 203.348 292.576,203.600 291.669,203.595 286.526 C 203.587 279.902,203.824 280.321,198.648 277.763 C 192.402 274.675,192.160 274.531,188.644 271.828 C 186.479 270.163,183.224 266.830,183.209 266.262 C 183.204 266.076,182.868 265.446,182.461 264.862 C 178.567 259.264,180.034 244.597,184.740 242.076 C 186.880 240.929,188.108 240.857,204.400 240.928 L 221.000 241.000 222.963 242.000 M187.614 308.774 C 185.554 312.623,192.559 317.155,195.400 313.810 C 197.003 311.923,198.485 312.328,200.294 315.148 C 203.199 319.677,205.655 319.798,209.000 315.577 C 210.457 313.739,212.045 312.744,212.302 313.508 C 212.676 314.623,214.752 315.277,216.324 314.775 C 219.863 313.647,221.465 310.496,219.346 308.829 C 217.754 307.576,188.282 307.525,187.614 308.774 M218.320 309.680 C 219.259 310.619,218.856 311.933,217.307 312.986 C 215.458 314.242,215.193 314.243,213.353 312.994 C 211.424 311.685,210.723 311.931,208.066 314.853 C 205.328 317.865,203.247 318.036,201.809 315.366 C 199.786 311.609,196.876 310.160,195.321 312.136 C 193.430 314.542,188.040 313.326,188.006 310.487 C 187.991 309.204,217.070 308.430,218.320 309.680 " stroke="none" fill="#a89393" fill-rule="evenodd"></path></g></svg>