<?xml version="1.0" encoding="utf-8"?>
<!-- Generator: Adobe Illustrator 23.0.3, SVG Export Plug-In . SVG Version: 6.00 Build 0)  -->
<svg version="1.1" id="Layer_1" xmlns="http://www.w3.org/2000/svg" xmlns:xlink="http://www.w3.org/1999/xlink" x="0px" y="0px"
	 viewBox="0 0 339.4 295.3" style="enable-background:new 0 0 339.4 295.3;" xml:space="preserve">
<style type="text/css">
	.st0{fill-rule:evenodd;clip-rule:evenodd;fill:#50AF95;}
	.st1{fill-rule:evenodd;clip-rule:evenodd;fill:#FFFFFF;}
</style>
<title>tether-usdt-logo</title>
<path class="st0" d="M72.1,15l-56.2,118c-0.4,0.9-0.2,2,0.5,2.7L168.1,281c0.9,0.9,2.3,0.9,3.2,0L323,135.6c0.7-0.7,0.9-1.8,0.5-2.7
	L267.3,15c-0.4-0.8-1.2-1.3-2.1-1.3H74.2C73.3,13.6,72.5,14.1,72.1,15C72.1,15,72.1,15,72.1,15z"/>
<path class="st1" d="M191.2,144.8L191.2,144.8c-1.2,0.1-7.4,0.5-21.2,0.5c-11,0-18.8-0.3-21.6-0.5l0,0c-42.5-1.9-74.2-9.3-74.2-18.1
	s31.7-16.2,74.2-18.2v28.9c2.8,0.2,10.7,0.7,21.7,0.7c13.2,0,19.8-0.6,21-0.7v-28.9c42.4,1.9,74.1,9.3,74.1,18.1
	S233.6,142.9,191.2,144.8L191.2,144.8L191.2,144.8z M191.2,105.6V79.7h59.2V40.2H89.2v39.5h59.2v25.9c-48.1,2.2-84.3,11.7-84.3,23.2
	s36.2,20.9,84.3,23.2v82.9h42.8v-82.9c48-2.2,84.1-11.7,84.1-23.1S239.2,107.8,191.2,105.6L191.2,105.6L191.2,105.6z M191.2,105.6
	L191.2,105.6z"/>
</svg>
