<?xml version="1.0" encoding="utf-8"?>
<!-- Generator: Adobe Illustrator 23.0.3, SVG Export Plug-In . SVG Version: 6.00 Build 0)  -->
<svg version="1.1" id="Layer_1" xmlns="http://www.w3.org/2000/svg" xmlns:xlink="http://www.w3.org/1999/xlink" x="0px" y="0px"
	 viewBox="0 0 236.4 200" style="enable-background:new 0 0 236.4 200;" xml:space="preserve">
<title>Asset 1</title>
<g>
	<g id="Layer_1-2">
		<path d="M197.9,31.6l-26.8,13.6L42,111c-0.4-3.3-0.7-6.7-0.7-10c0.1-42.5,34.6-76.9,77.1-76.9c13.1,0,26,3.4,37.4,9.8l15.3-7.8
			l2.3-1.2C131.4-5.6,72.6,3.8,42.1,45.8C30.4,61.8,24.2,81.2,24.2,101c0,2.4,0.1,4.8,0.3,7.2c0.5,6.9-3.1,13.4-9.3,16.5l-8.1,4.1
			V148l23.8-12.1l0,0l7.7-3.9l7.6-3.9l0,0l136.2-69.4l15.3-7.8l31.6-16.1V15.6L197.9,31.6z"/>
		<path d="M229.3,54L53.9,143.3l-15.3,7.8l-31.5,16v19.2l31.3-15.9l26.8-13.6l129.3-65.9c0.4,3.4,0.7,6.7,0.7,10.1
			c0,42.5-34.5,76.9-77,76.9c-13.2,0-26.1-3.4-37.6-9.8l-0.9,0.5L63,177c42,30.5,100.8,21.2,131.3-20.8c11.7-16,17.9-35.4,17.9-55.2
			c0-2.4-0.1-4.8-0.3-7.2c-0.5-6.9,3.1-13.4,9.3-16.5l8.1-4.1V54z"/>
	</g>
</g>
</svg>
