<svg id="Layer_1" data-name="Layer 1" xmlns="http://www.w3.org/2000/svg" viewBox="0 0 1007.65 158.54"><defs><style>.cls-1{font-size:119.63px;font-family:MonumentExtended-Regular, Monument Extended;letter-spacing:-0.01em;}.cls-1,.cls-10{fill:none;}.cls-10,.cls-2,.cls-3,.cls-4,.cls-5,.cls-6{stroke:#0071bc;stroke-miterlimit:10;}.cls-2,.cls-3,.cls-4,.cls-5,.cls-6{stroke-width:3px;}.cls-3{letter-spacing:-0.1em;}.cls-4{letter-spacing:-0.03em;}.cls-5{letter-spacing:-0.03em;}.cls-6{letter-spacing:-0.05em;}.cls-7,.cls-8,.cls-9{fill:#0071bc;}.cls-7{letter-spacing:-0.01em;}.cls-8{letter-spacing:-0.02em;}.cls-9{letter-spacing:-0.02em;}.cls-11,.cls-12,.cls-13{fill:#fff;}.cls-11{fill-opacity:0.6;}.cls-13{fill-opacity:0.2;}</style></defs><title>cryptonite</title><text class="cls-1" transform="translate(4.83 116.97)"><tspan class="cls-2">C</tspan><tspan class="cls-3" x="111.5" y="0">R</tspan><tspan class="cls-4" x="206.37" y="0">Y</tspan><tspan class="cls-5" x="326.6" y="0">P</tspan><tspan class="cls-6" x="430.09" y="0">T</tspan><tspan class="cls-2" x="534.89" y="0">O</tspan><tspan class="cls-7" x="646.75" y="0">N</tspan><tspan class="cls-8" x="764.22" y="0">IT</tspan><tspan class="cls-9" x="902.76" y="0">E</tspan></text><circle class="cls-10" cx="785.05" cy="14.79" r="14.29"/><path class="cls-11" d="M781.22,40.44v9.65l8.15,3.64Z" transform="translate(3.83 -38.73)"/><path class="cls-12" d="M781.22,40.44l-8.16,13.29,8.16-3.64Z" transform="translate(3.83 -38.73)"/><path class="cls-11" d="M781.22,60v6.56l8.16-11.29Z" transform="translate(3.83 -38.73)"/><path class="cls-12" d="M781.22,66.54V60l-8.16-4.73Z" transform="translate(3.83 -38.73)"/><path class="cls-13" d="M781.22,58.47l8.15-4.74-8.15-3.64Z" transform="translate(3.83 -38.73)"/><path class="cls-11" d="M773.06,53.73l8.16,4.74V50.09Z" transform="translate(3.83 -38.73)"/></svg>